<?xml version="1.0" encoding="utf-8"?>
<!-- Generator: Adobe Illustrator 23.0.1, SVG Export Plug-In . SVG Version: 6.00 Build 0)  -->
<svg version="1.1" xmlns="http://www.w3.org/2000/svg" xmlns:xlink="http://www.w3.org/1999/xlink" x="0px" y="0px"
	 viewBox="0 0 93.8 93.8" style="enable-background:new 0 0 93.8 93.8;" xml:space="preserve">
<style type="text/css">
	.st0{display:none;}
	.st1{display:inline;fill:none;stroke:#D8D8D8;stroke-width:0.5;stroke-miterlimit:10;}
	.st2{fill:none;}
	.st3{fill:#FF4057;}
	.st4{fill:#FF9161;}
	.st5{fill:#900048;}
	.st6{fill:#300761;}
	.st7{opacity:0.5;fill:#FFFFFF;}
	.st8{fill:#FFFFFF;}
	.st9{opacity:0.5;}
</style>
<g id="Calque_2" class="st0">
	<rect x="70.4" y="23.5" class="st1" width="11.7" height="11.7"/>
	<rect x="58.6" y="23.5" class="st1" width="11.7" height="11.7"/>
	<rect x="46.9" y="23.5" class="st1" width="11.7" height="11.7"/>
	<rect x="35.2" y="23.5" class="st1" width="11.7" height="11.7"/>
	<rect x="23.5" y="23.5" class="st1" width="11.7" height="11.7"/>
	<rect x="82.1" y="23.5" class="st1" width="11.7" height="11.7"/>
	<rect x="93.8" y="23.5" class="st1" width="11.7" height="11.7"/>
	<rect x="70.4" y="11.7" class="st1" width="11.7" height="11.7"/>
	<rect x="58.6" y="11.7" class="st1" width="11.7" height="11.7"/>
	<rect x="46.9" y="11.7" class="st1" width="11.7" height="11.7"/>
	<rect x="35.2" y="11.7" class="st1" width="11.7" height="11.7"/>
	<rect x="23.5" y="11.7" class="st1" width="11.7" height="11.7"/>
	<rect x="82.1" y="11.7" class="st1" width="11.7" height="11.7"/>
	<rect x="93.8" y="11.7" class="st1" width="11.7" height="11.7"/>
	<rect x="70.4" y="70.4" class="st1" width="11.7" height="11.7"/>
	<rect x="58.6" y="70.4" class="st1" width="11.7" height="11.7"/>
	<rect x="46.9" y="70.4" class="st1" width="11.7" height="11.7"/>
	<rect x="35.2" y="70.4" class="st1" width="11.7" height="11.7"/>
	<rect x="23.5" y="70.4" class="st1" width="11.7" height="11.7"/>
	<rect x="82.1" y="70.4" class="st1" width="11.7" height="11.7"/>
	<rect x="93.8" y="70.4" class="st1" width="11.7" height="11.7"/>
	<rect x="70.4" y="35.2" class="st1" width="11.7" height="11.7"/>
	<rect x="58.6" y="35.2" class="st1" width="11.7" height="11.7"/>
	<rect x="46.9" y="35.2" class="st1" width="11.7" height="11.7"/>
	<rect x="35.2" y="35.2" class="st1" width="11.7" height="11.7"/>
	<rect x="23.5" y="35.2" class="st1" width="11.7" height="11.7"/>
	<rect x="82.1" y="35.2" class="st1" width="11.7" height="11.7"/>
	<rect x="93.8" y="35.2" class="st1" width="11.7" height="11.7"/>
	<rect x="70.4" y="46.9" class="st1" width="11.7" height="11.7"/>
	<rect x="58.6" y="46.9" class="st1" width="11.7" height="11.7"/>
	<rect x="46.9" y="46.9" class="st1" width="11.7" height="11.7"/>
	<rect x="35.2" y="46.9" class="st1" width="11.7" height="11.7"/>
	<rect x="23.5" y="46.9" class="st1" width="11.7" height="11.7"/>
	<rect x="82.1" y="46.9" class="st1" width="11.7" height="11.7"/>
	<rect x="93.8" y="46.9" class="st1" width="11.7" height="11.7"/>
	<rect x="70.4" y="58.6" class="st1" width="11.7" height="11.7"/>
	<rect x="58.6" y="58.6" class="st1" width="11.7" height="11.7"/>
	<rect x="46.9" y="58.6" class="st1" width="11.7" height="11.7"/>
	<rect x="35.2" y="58.6" class="st1" width="11.7" height="11.7"/>
	<rect x="23.5" y="58.6" class="st1" width="11.7" height="11.7"/>
	<rect x="82.1" y="58.6" class="st1" width="11.7" height="11.7"/>
	<rect x="93.8" y="58.6" class="st1" width="11.7" height="11.7"/>
	<rect x="11.7" y="23.5" class="st1" width="11.7" height="11.7"/>
	<rect x="11.7" y="11.7" class="st1" width="11.7" height="11.7"/>
	<rect x="11.7" y="70.4" class="st1" width="11.7" height="11.7"/>
	<rect x="11.7" y="35.2" class="st1" width="11.7" height="11.7"/>
	<rect x="11.7" y="46.9" class="st1" width="11.7" height="11.7"/>
	<rect x="11.7" y="58.6" class="st1" width="11.7" height="11.7"/>
	<rect y="23.5" class="st1" width="11.7" height="11.7"/>
	<rect y="11.7" class="st1" width="11.7" height="11.7"/>
	<rect x="70.4" class="st1" width="11.7" height="11.7"/>
	<rect x="58.6" class="st1" width="11.7" height="11.7"/>
	<rect x="46.9" class="st1" width="11.7" height="11.7"/>
	<rect x="35.2" class="st1" width="11.7" height="11.7"/>
	<rect x="23.5" class="st1" width="11.7" height="11.7"/>
	<rect x="82.1" class="st1" width="11.7" height="11.7"/>
	<rect x="93.8" class="st1" width="11.7" height="11.7"/>
	<rect x="11.7" class="st1" width="11.7" height="11.7"/>
	<rect class="st1" width="11.7" height="11.7"/>
	<rect x="70.4" y="82.1" class="st1" width="11.7" height="11.7"/>
	<rect x="58.6" y="82.1" class="st1" width="11.7" height="11.7"/>
	<rect x="46.9" y="82.1" class="st1" width="11.7" height="11.7"/>
	<rect x="35.2" y="82.1" class="st1" width="11.7" height="11.7"/>
	<rect x="23.5" y="82.1" class="st1" width="11.7" height="11.7"/>
	<rect x="82.1" y="82.1" class="st1" width="11.7" height="11.7"/>
	<rect x="93.8" y="82.1" class="st1" width="11.7" height="11.7"/>
	<rect x="11.7" y="82.1" class="st1" width="11.7" height="11.7"/>
	<rect y="82.1" class="st1" width="11.7" height="11.7"/>
	<rect y="70.4" class="st1" width="11.7" height="11.7"/>
	<rect y="35.2" class="st1" width="11.7" height="11.7"/>
	<rect y="46.9" class="st1" width="11.7" height="11.7"/>
	<rect y="58.6" class="st1" width="11.7" height="11.7"/>
</g>
<g id="Calque_1">
	<g>
		<rect x="35.2" y="35.2" class="st2" width="11.7" height="11.7"/>
		<rect x="46.9" y="46.9" class="st2" width="11.7" height="11.7"/>
		<rect x="58.6" y="46.9" class="st3" width="11.7" height="11.7"/>
		<rect x="46.9" y="35.2" class="st4" width="11.7" height="11.7"/>
		<rect x="46.9" y="58.6" class="st5" width="11.7" height="11.7"/>
		<polygon class="st6" points="35.2,46.9 35.2,35.2 23.5,35.2 23.5,70.4 35.2,70.4 35.2,58.6 46.9,58.6 46.9,46.9 		"/>
		<rect x="35.2" y="23.5" class="st6" width="23.5" height="11.7"/>
	</g>
</g>
</svg>
